<svg width="15" height="15" viewBox="0 0 15 15" fill="none" xmlns="http://www.w3.org/2000/svg">
<path d="M14.6515 5.84182C14.5553 5.54437 14.2915 5.3331 13.9793 5.30497L9.73947 4.91999L8.06292 0.995843C7.9393 0.708254 7.65776 0.522095 7.34495 0.522095C7.03215 0.522095 6.75061 0.708254 6.62699 0.996516L4.95043 4.91999L0.709893 5.30497C0.398319 5.33378 0.135163 5.54437 0.0384405 5.84182C-0.0582818 6.13927 0.0310434 6.46553 0.266741 6.67119L3.47158 9.48185L2.52655 13.6447C2.45739 13.9508 2.5762 14.2672 2.83016 14.4508C2.96667 14.5494 3.12638 14.5996 3.28744 14.5996C3.4263 14.5996 3.56404 14.5622 3.68766 14.4882L7.34495 12.3024L11.0009 14.4882C11.2684 14.6492 11.6057 14.6345 11.8591 14.4508C12.1131 14.2666 12.2318 13.9501 12.1627 13.6447L11.2177 9.48185L14.4225 6.67175C14.6582 6.46553 14.7482 6.13983 14.6515 5.84182Z" fill="#FFC107"/>
</svg>
